<?xml version="1.0" encoding="UTF-8" standalone="no"?>
<svg
   xmlns:dc="http://purl.org/dc/elements/1.1/"
   xmlns:cc="http://creativecommons.org/ns#"
   xmlns:rdf="http://www.w3.org/1999/02/22-rdf-syntax-ns#"
   xmlns:svg="http://www.w3.org/2000/svg"
   xmlns="http://www.w3.org/2000/svg"
   xmlns:sodipodi="http://sodipodi.sourceforge.net/DTD/sodipodi-0.dtd"
   xmlns:inkscape="http://www.inkscape.org/namespaces/inkscape"
   viewBox="0 0 530.17559 255.21889"
   id="svg11715"
   version="1.1"
   inkscape:version="0.91 r13725"
   sodipodi:docname="elec_gen.plot.svg"
   inkscape:export-filename="C:\Users\hqp\Documents\GitHub\biomass-for-rps\elec_gen.plot.png"
   inkscape:export-xdpi="500"
   inkscape:export-ydpi="500"
   width="530.1756"
   height="255.21889">
  <metadata
     id="metadata11917">
    <rdf:RDF>
      <cc:Work
         rdf:about="">
        <dc:format>image/svg+xml</dc:format>
        <dc:type
           rdf:resource="http://purl.org/dc/dcmitype/StillImage" />
        <dc:title></dc:title>
      </cc:Work>
    </rdf:RDF>
  </metadata>
  <sodipodi:namedview
     pagecolor="#ffffff"
     bordercolor="#666666"
     borderopacity="1"
     objecttolerance="10"
     gridtolerance="10"
     guidetolerance="10"
     inkscape:pageopacity="0"
     inkscape:pageshadow="2"
     inkscape:window-width="1536"
     inkscape:window-height="801"
     id="namedview11915"
     showgrid="false"
     inkscape:zoom="0.66666665"
     inkscape:cx="46.380452"
     inkscape:cy="84.364784"
     inkscape:window-x="-8"
     inkscape:window-y="-8"
     inkscape:window-maximized="1"
     inkscape:current-layer="svg11715"
     fit-margin-top="0"
     fit-margin-left="0"
     fit-margin-right="0"
     fit-margin-bottom="0" />
  <defs
     id="defs11717">
    <style
       type="text/css"
       id="style11719"><![CDATA[
    line, polyline, path, rect, circle {
      fill: none;
      stroke: #000000;
      stroke-linecap: round;
      stroke-linejoin: round;
      stroke-miterlimit: 10.00;
    }
  ]]></style>
  </defs>
  <rect
     width="520"
     height="252.99821"
     style="fill:#ffffff;stroke:none;stroke-linecap:round;stroke-linejoin:round;stroke-miterlimit:10"
     id="rect11721"
     x="9.5956116"
     y="0.57999998" />
  <rect
     x="0.60274523"
     y="0.60274523"
     width="528.97009"
     height="254.0134"
     style="fill:#ffffff;stroke:#ffffff;stroke-width:1.20549047;stroke-linecap:round;stroke-linejoin:round;stroke-miterlimit:10"
     id="rect11723" />
  <defs
     id="defs11725">
    <clipPath
       id="cpNDQuOTQ1OXw0MjAuMDQ1fDIyNi43OTJ8OS45NjI2NA==">
      <rect
         x="44.950001"
         y="9.96"
         width="375.10001"
         height="216.83"
         id="rect11728"
         style="fill:none;stroke:#000000;stroke-linecap:round;stroke-linejoin:round;stroke-miterlimit:10" />
    </clipPath>
  </defs>
  <polyline
     points="172.48,99.03 164.98,95.73 157.48,83.75 149.97,59.49 142.47,59.56 134.97,66.65 127.47,43.45 119.97,31.40 112.46,41.07 104.96,16.75 97.46,13.51 89.96,16.25 82.46,13.89 74.95,17.55 67.45,18.03 59.95,22.32 52.45,25.41 "
     style="fill:none;stroke:#a6cee3;stroke-width:4.26999998;stroke-linecap:butt;stroke-linejoin:round;stroke-miterlimit:10"
     clip-path="url(#cpNDQuOTQ1OXw0MjAuMDQ1fDIyNi43OTJ8OS45NjI2NA==)"
     id="polyline11730"
     transform="translate(9.5956118,0.58000001)" />
  <polyline
     points="172.48,92.16 164.98,81.01 157.48,85.75 149.97,107.63 142.47,107.82 134.97,97.13 127.47,119.57 119.97,122.32 112.46,129.38 104.96,133.40 97.46,131.96 89.96,140.44 82.46,146.30 74.95,151.68 67.45,158.05 59.95,153.70 52.45,159.19 "
     style="fill:none;stroke:#1f78b4;stroke-width:4.26999998;stroke-linecap:butt;stroke-linejoin:round;stroke-miterlimit:10"
     clip-path="url(#cpNDQuOTQ1OXw0MjAuMDQ1fDIyNi43OTJ8OS45NjI2NA==)"
     id="polyline11732"
     transform="translate(9.5956118,0.58000001)" />
  <polyline
     points="172.48,218.64 164.98,220.99 157.48,222.66 149.97,223.73 "
     style="fill:none;stroke:#b2df8a;stroke-width:4.26999998;stroke-linecap:butt;stroke-linejoin:round;stroke-miterlimit:10"
     clip-path="url(#cpNDQuOTQ1OXw0MjAuMDQ1fDIyNi43OTJ8OS45NjI2NA==)"
     id="polyline11734"
     transform="translate(9.5956118,0.58000001)" />
  <path
     style="fill:none;stroke:#33a02c;stroke-width:4.26999998;stroke-linecap:butt;stroke-linejoin:round;stroke-miterlimit:10"
     clip-path="url(#cpNDQuOTQ1OXw0MjAuMDQ1fDIyNi43OTJ8OS45NjI2NA==)"
     d="m 172.48,220.02 c -10.40359,0.34144 -20.81877,-0.35971 -31.21194,0.38609 -10.07394,0.54937 -20.16972,0.35668 -30.25192,0.61236 -17.262133,-0.24802 -34.52634,0.21959 -51.786961,0.13192 -2.259727,0.12654 -4.519453,0.25309 -6.779179,0.37963"
     id="polyline11736"
     inkscape:connector-curvature="0"
     transform="translate(9.5956118,0.58000001)" />
  <polyline
     points="172.48,195.06 164.98,198.46 157.48,200.45 149.97,199.36 142.47,198.39 134.97,197.57 127.47,193.01 119.97,199.27 112.46,197.87 104.96,199.84 97.46,200.61 89.96,196.20 82.46,198.20 74.95,198.40 67.45,197.62 59.95,198.83 52.45,203.84 "
     style="fill:none;stroke:#fb9a99;stroke-width:4.26999998;stroke-linecap:butt;stroke-linejoin:round;stroke-miterlimit:10"
     clip-path="url(#cpNDQuOTQ1OXw0MjAuMDQ1fDIyNi43OTJ8OS45NjI2NA==)"
     id="polyline11738"
     transform="translate(9.5956118,0.58000001)" />
  <polyline
     points="172.48,141.65 164.98,141.57 157.48,142.47 149.97,142.48 142.47,143.34 134.97,145.42 127.47,143.21 119.97,141.44 112.46,142.30 104.96,141.52 97.46,141.50 89.96,143.53 82.46,144.08 74.95,143.39 67.45,146.01 59.95,144.28 52.45,145.47 "
     style="fill:none;stroke:#e31a1c;stroke-width:4.26999998;stroke-linecap:butt;stroke-linejoin:round;stroke-miterlimit:10"
     clip-path="url(#cpNDQuOTQ1OXw0MjAuMDQ1fDIyNi43OTJ8OS45NjI2NA==)"
     id="polyline11740"
     transform="translate(9.5956118,0.58000001)" />
  <polyline
     points="172.48,199.90 164.98,202.78 157.48,206.62 149.97,207.58 142.47,209.04 134.97,211.90 127.47,214.08 119.97,216.78 112.46,218.98 104.96,220.94 97.46,223.15 89.96,223.98 82.46,224.91 74.95,225.30 67.45,225.61 59.95,225.70 52.45,226.08 "
     style="fill:none;stroke:#fdbf6f;stroke-width:4.26999998;stroke-linecap:butt;stroke-linejoin:round;stroke-miterlimit:10"
     clip-path="url(#cpNDQuOTQ1OXw0MjAuMDQ1fDIyNi43OTJ8OS45NjI2NA==)"
     id="polyline11742"
     transform="translate(9.5956118,0.58000001)" />
  <polyline
     points="420.04,106.36 412.54,106.61 405.04,107.57 397.54,107.40 390.04,107.36 382.53,106.67 375.03,106.69 367.53,107.79 360.03,107.66 352.53,106.69 345.03,106.54 337.52,106.04 330.02,106.21 322.52,106.28 315.02,106.02 307.52,106.24 300.01,105.96 292.51,105.70 285.01,105.21 277.51,104.45 270.01,103.25 262.50,103.21 255.00,103.59 247.50,102.98 240.00,102.80 232.50,104.60 224.99,106.18 217.49,110.39 209.99,111.01 202.49,107.31 194.99,103.55 187.48,103.36 179.98,97.42 172.48,96.00 164.98,98.18 "
     style="fill:none;stroke:#a6cee3;stroke-width:4.26999998;stroke-linecap:butt;stroke-linejoin:round;stroke-miterlimit:10;stroke-dasharray:11.38, 5.69, 11.38, 5.69"
     clip-path="url(#cpNDQuOTQ1OXw0MjAuMDQ1fDIyNi43OTJ8OS45NjI2NA==)"
     id="polyline11744"
     transform="translate(9.5956118,0.58000001)" />
  <path
     style="fill:none;stroke:#1f78b4;stroke-width:4.26999998;stroke-linecap:butt;stroke-linejoin:round;stroke-miterlimit:10;stroke-dasharray:11.38, 5.69, 11.38, 5.69"
     clip-path="url(#cpNDQuOTQ1OXw0MjAuMDQ1fDIyNi43OTJ8OS45NjI2NA==)"
     d="m 420.04,66.57 c -4.67585,2.344233 -9.55539,3.94837 -14.8114,4.184602 -9.97634,2.610925 -20.0328,5.005883 -30.1986,6.765398 -8.17465,-0.468701 -15.89459,2.389609 -23.52419,4.898537 -9.68767,2.56211 -19.50375,4.637327 -29.4979,5.465731 -7.2562,1.682557 -14.45662,4.055675 -21.99791,3.525732 -7.61289,2.5629 -15.6871,1.703442 -23.52901,2.387754 -8.86878,2.432339 -18.46844,1.537308 -26.89468,5.683885 -5.92622,2.506091 -12.34834,2.825281 -18.63455,3.527901 -3.70756,1.08454 -7.41503,1.48316 -11.12228,0.16395 -3.85302,-1.25107 -7.19188,2.26659 -10.80367,3.27204 -3.74647,1.83741 -7.51957,3.56132 -11.79997,3.12311 -3.91861,0.5929 -6.45801,-3.56758 -9.74584,-5.14864 -4.62571,5.73592 -10.86199,-7.090228 -15.26517,-11.947495"
     id="polyline11746"
     inkscape:connector-curvature="0"
     sodipodi:nodetypes="cccccccccccccc"
     transform="translate(9.5956118,0.58000001)" />
  <polyline
     points="420.04,183.24 412.54,183.32 405.04,183.70 397.54,184.70 390.04,186.39 382.53,188.75 375.03,190.35 367.53,191.36 360.03,192.32 352.53,193.24 345.03,193.94 337.52,194.59 330.02,195.77 322.52,197.62 315.02,199.11 307.52,200.59 300.01,203.53 292.51,205.99 285.01,208.18 277.51,210.10 270.01,211.80 262.50,213.15 255.00,213.71 247.50,213.97 240.00,214.36 232.50,214.92 224.99,215.50 217.49,215.55 209.99,215.55 202.49,215.70 194.99,216.82 187.48,218.64 179.98,221.11 172.48,221.83 164.98,223.03 "
     style="fill:none;stroke:#b2df8a;stroke-width:4.26999998;stroke-linecap:butt;stroke-linejoin:round;stroke-miterlimit:10;stroke-dasharray:11.38, 5.69, 11.38, 5.69"
     clip-path="url(#cpNDQuOTQ1OXw0MjAuMDQ1fDIyNi43OTJ8OS45NjI2NA==)"
     id="polyline11748"
     transform="translate(9.5956118,0.58000001)" />
  <path
     style="fill:none;stroke:#33a02c;stroke-width:4.26999998;stroke-linecap:butt;stroke-linejoin:round;stroke-miterlimit:10;stroke-dasharray:11.38, 5.69, 11.38, 5.69"
     clip-path="url(#cpNDQuOTQ1OXw0MjAuMDQ1fDIyNi43OTJ8OS45NjI2NA==)"
     d="m 420.04,225.76 c -48.70144,0.0563 -97.40291,0.0116 -146.10459,0.0552 -22.67845,-0.18776 -45.35643,6.7e-4 -68.03063,0.32843 C 192.2722,225.6035 178.53448,227.14861 164.98,225.36"
     id="polyline11750"
     inkscape:connector-curvature="0"
     transform="translate(9.5956118,-5.42)" />
  <polyline
     points="420.04,195.40 412.54,195.40 405.04,195.42 397.54,195.42 390.04,195.42 382.53,195.42 375.03,195.46 367.53,195.47 360.03,195.48 352.53,195.48 345.03,195.49 337.52,195.49 330.02,195.49 322.52,195.49 315.02,195.49 307.52,195.50 300.01,195.50 292.51,195.50 285.01,195.53 277.51,195.53 270.01,195.53 262.50,195.53 255.00,195.53 247.50,195.53 240.00,195.53 232.50,195.53 224.99,195.53 217.49,195.58 209.99,195.60 202.49,195.60 194.99,195.60 187.48,197.14 179.98,198.79 172.48,195.62 164.98,198.62 "
     style="fill:none;stroke:#fb9a99;stroke-width:4.26999998;stroke-linecap:butt;stroke-linejoin:round;stroke-miterlimit:10;stroke-dasharray:11.38, 5.69, 11.38, 5.69"
     clip-path="url(#cpNDQuOTQ1OXw0MjAuMDQ1fDIyNi43OTJ8OS45NjI2NA==)"
     id="polyline11752"
     transform="translate(9.5956118,0.58000001)" />
  <polyline
     points="420.04,159.64 412.54,158.48 405.04,158.48 397.54,158.35 390.04,158.05 382.53,157.47 375.03,156.87 367.53,156.73 360.03,156.55 352.53,156.37 345.03,156.38 337.52,156.62 330.02,156.85 322.52,156.98 315.02,156.88 307.52,156.08 300.01,155.80 292.51,154.13 285.01,153.86 277.51,153.95 270.01,153.19 262.50,152.10 255.00,151.84 247.50,151.73 240.00,151.73 232.50,150.79 224.99,148.64 217.49,147.99 209.99,146.04 202.49,146.28 194.99,145.91 187.48,143.43 179.98,142.49 172.48,142.99 164.98,141.73 "
     style="fill:none;stroke:#e31a1c;stroke-width:4.26999998;stroke-linecap:butt;stroke-linejoin:round;stroke-miterlimit:10;stroke-dasharray:11.38, 5.69, 11.38, 5.69"
     clip-path="url(#cpNDQuOTQ1OXw0MjAuMDQ1fDIyNi43OTJ8OS45NjI2NA==)"
     id="polyline11754"
     transform="translate(9.5956118,0.58000001)" />
  <polyline
     points="420.04,180.42 412.54,181.18 405.04,181.74 397.54,181.91 390.04,182.01 382.53,182.18 375.03,182.66 367.53,183.00 360.03,183.18 352.53,183.27 345.03,183.38 337.52,183.37 330.02,183.42 322.52,183.46 315.02,183.48 307.52,183.47 300.01,183.48 292.51,183.50 285.01,183.54 277.51,183.64 270.01,183.71 262.50,183.81 255.00,183.88 247.50,183.88 240.00,183.94 232.50,184.03 224.99,184.15 217.49,184.26 209.99,184.64 202.49,186.58 194.99,190.10 187.48,196.58 179.98,199.58 172.48,200.79 164.98,202.79 "
     style="fill:none;stroke:#fdbf6f;stroke-width:4.26999998;stroke-linecap:butt;stroke-linejoin:round;stroke-miterlimit:10;stroke-dasharray:11.38, 5.69, 11.38, 5.69"
     clip-path="url(#cpNDQuOTQ1OXw0MjAuMDQ1fDIyNi43OTJ8OS45NjI2NA==)"
     id="polyline11756"
     transform="translate(9.5956118,0.58000001)" />
  <rect
     x="44.950001"
     y="9.96"
     width="375.10001"
     height="216.83"
     style="fill:none;stroke:#000000;stroke-width:2.13000011;stroke-linecap:round;stroke-linejoin:round;stroke-miterlimit:10"
     clip-path="url(#cpNDQuOTQ1OXw0MjAuMDQ1fDIyNi43OTJ8OS45NjI2NA==)"
     id="rect11758"
     transform="translate(9.5956118,0.58000001)" />
  <defs
     id="defs11760">
    <clipPath
       id="cpMHw0MzJ8Mjg4fDA=">
      <rect
         x="0"
         y="0"
         width="432"
         height="288"
         id="rect11763"
         style="fill:none;stroke:#000000;stroke-linecap:round;stroke-linejoin:round;stroke-miterlimit:10" />
    </clipPath>
  </defs>
  <g
     clip-path="url(#cpMHw0MzJ8Mjg4fDA=)"
     id="g11765"
     transform="translate(1.5956118,0.58000001)">
    <text
       x="27.99"
       y="230.73"
       style="font-style:normal;font-variant:normal;font-weight:normal;font-stretch:normal;font-size:13.75px;line-height:125%;font-family:Arial;-inkscape-font-specification:'Arial, Normal';text-align:start;writing-mode:lr-tb;text-anchor:start"
       textLength="6.12px"
       lengthAdjust="spacingAndGlyphs"
       id="text11767"
       sodipodi:linespacing="125%">0</text>
  </g>
  <g
     clip-path="url(#cpMHw0MzJ8Mjg4fDA=)"
     id="g11769"
     transform="translate(1.5956118,0.58000001)">
    <text
       x="21.879999"
       y="177.84"
       style="font-style:normal;font-variant:normal;font-weight:normal;font-stretch:normal;font-size:13.75px;line-height:125%;font-family:Arial;-inkscape-font-specification:'Arial, Normal';text-align:start;writing-mode:lr-tb;text-anchor:start"
       textLength="18.35px"
       lengthAdjust="spacingAndGlyphs"
       id="text11771"
       sodipodi:linespacing="125%">500</text>
  </g>
  <g
     clip-path="url(#cpMHw0MzJ8Mjg4fDA=)"
     id="g11773"
     transform="translate(1.5956118,0.58000001)">
    <text
       x="18.82"
       y="124.96"
       style="font-style:normal;font-variant:normal;font-weight:normal;font-stretch:normal;font-size:13.75px;line-height:125%;font-family:Arial;-inkscape-font-specification:'Arial, Normal';text-align:start;writing-mode:lr-tb;text-anchor:start"
       textLength="24.47px"
       lengthAdjust="spacingAndGlyphs"
       id="text11775"
       sodipodi:linespacing="125%">1000</text>
  </g>
  <g
     clip-path="url(#cpMHw0MzJ8Mjg4fDA=)"
     id="g11777"
     transform="translate(1.5956118,0.58000001)">
    <text
       x="18.82"
       y="72.07"
       style="font-style:normal;font-variant:normal;font-weight:normal;font-stretch:normal;font-size:13.75px;line-height:125%;font-family:Arial;-inkscape-font-specification:'Arial, Normal';text-align:start;writing-mode:lr-tb;text-anchor:start"
       textLength="24.47px"
       lengthAdjust="spacingAndGlyphs"
       id="text11779"
       sodipodi:linespacing="125%">1500</text>
  </g>
  <g
     clip-path="url(#cpMHw0MzJ8Mjg4fDA=)"
     id="g11781"
     transform="translate(1.5956118,0.58000001)">
    <text
       x="18.82"
       y="19.190001"
       style="font-style:normal;font-variant:normal;font-weight:normal;font-stretch:normal;font-size:13.75px;line-height:125%;font-family:Arial;-inkscape-font-specification:'Arial, Normal';text-align:start;writing-mode:lr-tb;text-anchor:start"
       textLength="24.47px"
       lengthAdjust="spacingAndGlyphs"
       id="text11783"
       sodipodi:linespacing="125%">2000</text>
  </g>
  <polyline
     points="49.27,173.91 44.95,173.91 "
     style="fill:none;stroke:#000000;stroke-width:2.13000011;stroke-linecap:butt;stroke-linejoin:round;stroke-miterlimit:10"
     clip-path="url(#cpMHw0MzJ8Mjg4fDA=)"
     id="polyline11787"
     transform="translate(9.5956118,0.58000001)" />
  <polyline
     points="49.27,121.02 44.95,121.02 "
     style="fill:none;stroke:#000000;stroke-width:2.13000011;stroke-linecap:butt;stroke-linejoin:round;stroke-miterlimit:10"
     clip-path="url(#cpMHw0MzJ8Mjg4fDA=)"
     id="polyline11789"
     transform="translate(9.5956118,0.58000001)" />
  <polyline
     points="49.27,68.14 44.95,68.14 "
     style="fill:none;stroke:#000000;stroke-width:2.13000011;stroke-linecap:butt;stroke-linejoin:round;stroke-miterlimit:10"
     clip-path="url(#cpMHw0MzJ8Mjg4fDA=)"
     id="polyline11791"
     transform="translate(9.5956118,0.58000001)" />
  <polyline
     points="49.27,15.25 44.95,15.25 "
     style="fill:none;stroke:#000000;stroke-width:2.13000011;stroke-linecap:butt;stroke-linejoin:round;stroke-miterlimit:10"
     clip-path="url(#cpMHw0MzJ8Mjg4fDA=)"
     id="polyline11793"
     transform="translate(9.5956118,0.58000001)" />
  <polyline
     points="119.97,222.47 119.97,226.79 "
     style="fill:none;stroke:#000000;stroke-width:2.13000011;stroke-linecap:butt;stroke-linejoin:round;stroke-miterlimit:10"
     clip-path="url(#cpMHw0MzJ8Mjg4fDA=)"
     id="polyline11797"
     transform="translate(9.5956118,0.58000001)" />
  <polyline
     points="194.99,222.47 194.99,226.79 "
     style="fill:none;stroke:#000000;stroke-width:2.13000011;stroke-linecap:butt;stroke-linejoin:round;stroke-miterlimit:10"
     clip-path="url(#cpMHw0MzJ8Mjg4fDA=)"
     id="polyline11799"
     transform="translate(9.5956118,0.58000001)" />
  <polyline
     points="270.01,222.47 270.01,226.79 "
     style="fill:none;stroke:#000000;stroke-width:2.13000011;stroke-linecap:butt;stroke-linejoin:round;stroke-miterlimit:10"
     clip-path="url(#cpMHw0MzJ8Mjg4fDA=)"
     id="polyline11801"
     transform="translate(9.5956118,0.58000001)" />
  <polyline
     points="345.03,222.47 345.03,226.79 "
     style="fill:none;stroke:#000000;stroke-width:2.13000011;stroke-linecap:butt;stroke-linejoin:round;stroke-miterlimit:10"
     clip-path="url(#cpMHw0MzJ8Mjg4fDA=)"
     id="polyline11803"
     transform="translate(9.5956118,0.58000001)" />
  <g
     clip-path="url(#cpMHw0MzJ8Mjg4fDA=)"
     id="g11807"
     transform="translate(9.5956118,4.58)">
    <text
       x="32.709999"
       y="236.32001"
       style="font-style:normal;font-variant:normal;font-weight:normal;font-stretch:normal;font-size:13.75px;line-height:125%;font-family:Arial;-inkscape-font-specification:'Arial, Normal';text-align:start;writing-mode:lr-tb;text-anchor:start"
       textLength="24.47px"
       lengthAdjust="spacingAndGlyphs"
       id="text11809"
       sodipodi:linespacing="125%">2000</text>
  </g>
  <g
     clip-path="url(#cpMHw0MzJ8Mjg4fDA=)"
     id="g11811"
     transform="translate(9.5956118,4.58)">
    <text
       x="107.73"
       y="236.32001"
       style="font-style:normal;font-variant:normal;font-weight:normal;font-stretch:normal;font-size:13.75px;line-height:125%;font-family:Arial;-inkscape-font-specification:'Arial, Normal';text-align:start;writing-mode:lr-tb;text-anchor:start"
       textLength="24.47px"
       lengthAdjust="spacingAndGlyphs"
       id="text11813"
       sodipodi:linespacing="125%">2010</text>
  </g>
  <g
     clip-path="url(#cpMHw0MzJ8Mjg4fDA=)"
     id="g11815"
     transform="translate(9.5956118,4.58)">
    <text
       x="182.75"
       y="236.32001"
       style="font-style:normal;font-variant:normal;font-weight:normal;font-stretch:normal;font-size:13.75px;line-height:125%;font-family:Arial;-inkscape-font-specification:'Arial, Normal';text-align:start;writing-mode:lr-tb;text-anchor:start"
       textLength="24.47px"
       lengthAdjust="spacingAndGlyphs"
       id="text11817"
       sodipodi:linespacing="125%">2020</text>
  </g>
  <g
     clip-path="url(#cpMHw0MzJ8Mjg4fDA=)"
     id="g11819"
     transform="translate(9.5956118,4.58)">
    <text
       x="257.76999"
       y="236.32001"
       style="font-style:normal;font-variant:normal;font-weight:normal;font-stretch:normal;font-size:13.75px;line-height:125%;font-family:Arial;-inkscape-font-specification:'Arial, Normal';text-align:start;writing-mode:lr-tb;text-anchor:start"
       textLength="24.47px"
       lengthAdjust="spacingAndGlyphs"
       id="text11821"
       sodipodi:linespacing="125%">2030</text>
  </g>
  <g
     clip-path="url(#cpMHw0MzJ8Mjg4fDA=)"
     id="g11823"
     transform="translate(9.5956118,4.58)">
    <text
       x="332.79001"
       y="236.32001"
       style="font-style:normal;font-variant:normal;font-weight:normal;font-stretch:normal;font-size:13.75px;line-height:125%;font-family:Arial;-inkscape-font-specification:'Arial, Normal';text-align:start;writing-mode:lr-tb;text-anchor:start"
       textLength="24.47px"
       lengthAdjust="spacingAndGlyphs"
       id="text11825"
       sodipodi:linespacing="125%">2040</text>
  </g>
  <g
     clip-path="none"
     id="g11827"
     transform="translate(9.5956118,4.58)">
    <text
       x="407.81"
       y="236.32001"
       style="font-style:normal;font-variant:normal;font-weight:normal;font-stretch:normal;font-size:13.75px;line-height:125%;font-family:Arial;-inkscape-font-specification:'Arial, Normal';text-align:start;writing-mode:lr-tb;text-anchor:start"
       textLength="24.47px"
       lengthAdjust="spacingAndGlyphs"
       id="text11829"
       sodipodi:linespacing="125%">2050</text>
  </g>
  <g
     clip-path="url(#cpMHw0MzJ8Mjg4fDA=)"
     id="g11831"
     transform="translate(9.5956118,4.58)">
    <text
       x="218.77"
       y="246.7"
       style="font-style:normal;font-variant:normal;font-weight:normal;font-stretch:normal;font-size:13.75px;line-height:125%;font-family:Arial;-inkscape-font-specification:'Arial, Normal';text-align:start;writing-mode:lr-tb;text-anchor:start"
       textLength="27.46px"
       lengthAdjust="spacingAndGlyphs"
       id="text11833"
       sodipodi:linespacing="125%">Year</text>
  </g>
  <g
     clip-path="url(#cpMHw0MzJ8Mjg4fDA=)"
     id="g11835"
     transform="translate(-0.40438817,19.548365)">
    <text
       transform="matrix(0,-1,1,0,16.56,171.48)"
       style="font-style:normal;font-variant:normal;font-weight:normal;font-stretch:normal;font-size:13.75px;line-height:125%;font-family:Arial;-inkscape-font-specification:'Arial, Normal';text-align:start;writing-mode:lr-tb;text-anchor:start"
       textLength="106.20px"
       lengthAdjust="spacingAndGlyphs"
       id="text11837"
       sodipodi:linespacing="125%">
      <tspan
         sodipodi:role="line"
         id="tspan12462"
         x="0"
         y="0">Annual Generation (GWh)</tspan>
    </text>
  </g>
  <g
     clip-path="url(#cpMHw0MzJ8Mjg4fDA=)"
     id="g11841"
     transform="translate(378.09562,-237.17001)">
    <text
       x="69.190002"
       y="273.37"
       style="font-style:normal;font-variant:normal;font-weight:normal;font-stretch:normal;font-size:13.75px;line-height:125%;font-family:Arial;-inkscape-font-specification:'Arial, Normal';text-align:start;writing-mode:lr-tb;text-anchor:start"
       textLength="36.02px"
       lengthAdjust="spacingAndGlyphs"
       id="text11843"
       sodipodi:linespacing="125%">source</text>
  </g>
  <g
     id="g6069"
     transform="translate(-48.404388,38.58)">
    <rect
       transform="translate(376.50001,-249.75001)"
       id="rect11845"
       clip-path="url(#cpMHw0MzJ8Mjg4fDA=)"
       style="fill:#f2f2f2;stroke:#ffffff;stroke-width:1.15999997;stroke-linecap:round;stroke-linejoin:round;stroke-miterlimit:10"
       height="11.96"
       width="15.94"
       y="257.12"
       x="109.53" />
    <line
       transform="translate(376.50001,-249.75001)"
       id="line11847"
       clip-path="url(#cpMHw0MzJ8Mjg4fDA=)"
       style="fill:none;stroke:#a6cee3;stroke-width:4.26999998;stroke-linecap:butt;stroke-linejoin:round;stroke-miterlimit:10"
       y2="263.09"
       x2="123.87"
       y1="263.09"
       x1="111.12" />
    <line
       transform="translate(376.50001,-249.75001)"
       id="line11849"
       clip-path="url(#cpMHw0MzJ8Mjg4fDA=)"
       style="fill:none;stroke:#a6cee3;stroke-width:4.26999998;stroke-linecap:butt;stroke-linejoin:round;stroke-miterlimit:10;stroke-dasharray:11.38, 5.69, 11.38, 5.69"
       y2="263.09"
       x2="123.87"
       y1="263.09"
       x1="111.12" />
    <rect
       transform="translate(376.50001,-249.75001)"
       id="rect11851"
       clip-path="url(#cpMHw0MzJ8Mjg4fDA=)"
       style="fill:#f2f2f2;stroke:#ffffff;stroke-width:1.15999997;stroke-linecap:round;stroke-linejoin:round;stroke-miterlimit:10"
       height="11.96"
       width="15.94"
       y="269.07001"
       x="109.53" />
    <line
       transform="translate(376.50001,-249.75001)"
       id="line11853"
       clip-path="url(#cpMHw0MzJ8Mjg4fDA=)"
       style="fill:none;stroke:#1f78b4;stroke-width:4.26999998;stroke-linecap:butt;stroke-linejoin:round;stroke-miterlimit:10"
       y2="275.04999"
       x2="123.87"
       y1="275.04999"
       x1="111.12" />
    <line
       transform="translate(376.50001,-249.75001)"
       id="line11855"
       clip-path="url(#cpMHw0MzJ8Mjg4fDA=)"
       style="fill:none;stroke:#1f78b4;stroke-width:4.26999998;stroke-linecap:butt;stroke-linejoin:round;stroke-miterlimit:10;stroke-dasharray:11.38, 5.69, 11.38, 5.69"
       y2="275.04999"
       x2="123.87"
       y1="275.04999"
       x1="111.12" />
    <g
       transform="translate(376.50001,-249.75001)"
       id="g11887"
       clip-path="url(#cpMHw0MzJ8Mjg4fDA=)">
      <text
         id="text11889"
         lengthAdjust="spacingAndGlyphs"
         textLength="23.85px"
         style="font-style:normal;font-variant:normal;font-weight:normal;font-stretch:normal;font-size:13.75px;line-height:125%;font-family:Arial;-inkscape-font-specification:'Arial, Normal';text-align:start;writing-mode:lr-tb;text-anchor:start"
         y="267.75"
         x="127.63"
         sodipodi:linespacing="125%">coal</text>
    </g>
    <g
       transform="translate(376.50001,-249.75001)"
       id="g11891"
       clip-path="url(#cpMHw0MzJ8Mjg4fDA=)">
      <text
         id="text11893"
         lengthAdjust="spacingAndGlyphs"
         textLength="64.32px"
         style="font-style:normal;font-variant:normal;font-weight:normal;font-stretch:normal;font-size:13.75px;line-height:125%;font-family:Arial;-inkscape-font-specification:'Arial, Normal';text-align:start;writing-mode:lr-tb;text-anchor:start"
         y="279.70001"
         x="127.63"
         sodipodi:linespacing="125%">natural gas</text>
    </g>
  </g>
  <g
     id="g6038"
     transform="translate(-78.98439,13.161863)">
    <rect
       transform="translate(322.50001,-195.75001)"
       id="rect11857"
       clip-path="url(#cpMHw0MzJ8Mjg4fDA=)"
       style="fill:#f2f2f2;stroke:#ffffff;stroke-width:1.15999997;stroke-linecap:round;stroke-linejoin:round;stroke-miterlimit:10"
       height="11.96"
       width="15.94"
       y="257.12"
       x="194.11" />
    <line
       transform="translate(322.50001,-195.75001)"
       id="line11859"
       clip-path="url(#cpMHw0MzJ8Mjg4fDA=)"
       style="fill:none;stroke:#b2df8a;stroke-width:4.26999998;stroke-linecap:butt;stroke-linejoin:round;stroke-miterlimit:10"
       y2="263.09"
       x2="208.46001"
       y1="263.09"
       x1="195.7" />
    <line
       transform="translate(322.50001,-195.75001)"
       id="line11861"
       clip-path="url(#cpMHw0MzJ8Mjg4fDA=)"
       style="fill:none;stroke:#b2df8a;stroke-width:4.26999998;stroke-linecap:butt;stroke-linejoin:round;stroke-miterlimit:10;stroke-dasharray:11.38, 5.69, 11.38, 5.69"
       y2="263.09"
       x2="208.46001"
       y1="263.09"
       x1="195.7" />
    <rect
       transform="translate(322.50001,-195.75001)"
       id="rect11863"
       clip-path="url(#cpMHw0MzJ8Mjg4fDA=)"
       style="fill:#f2f2f2;stroke:#ffffff;stroke-width:1.15999997;stroke-linecap:round;stroke-linejoin:round;stroke-miterlimit:10"
       height="11.96"
       width="15.94"
       y="269.07001"
       x="194.11" />
    <line
       transform="translate(322.50001,-195.75001)"
       id="line11865"
       clip-path="url(#cpMHw0MzJ8Mjg4fDA=)"
       style="fill:none;stroke:#33a02c;stroke-width:4.26999998;stroke-linecap:butt;stroke-linejoin:round;stroke-miterlimit:10"
       y2="275.04999"
       x2="208.46001"
       y1="275.04999"
       x1="195.7" />
    <line
       transform="translate(322.50001,-195.75001)"
       id="line11867"
       clip-path="url(#cpMHw0MzJ8Mjg4fDA=)"
       style="fill:none;stroke:#33a02c;stroke-width:4.26999998;stroke-linecap:butt;stroke-linejoin:round;stroke-miterlimit:10;stroke-dasharray:11.38, 5.69, 11.38, 5.69"
       y2="275.04999"
       x2="208.46001"
       y1="275.04999"
       x1="195.7" />
    <g
       transform="translate(322.50001,-195.75001)"
       id="g11895"
       clip-path="url(#cpMHw0MzJ8Mjg4fDA=)">
      <text
         id="text11897"
         lengthAdjust="spacingAndGlyphs"
         textLength="44.80px"
         style="font-style:normal;font-variant:normal;font-weight:normal;font-stretch:normal;font-size:13.75px;line-height:125%;font-family:Arial;-inkscape-font-specification:'Arial, Normal';text-align:start;writing-mode:lr-tb;text-anchor:start"
         y="267.75"
         x="212.21001"
         sodipodi:linespacing="125%">all solar</text>
    </g>
    <g
       transform="translate(322.50001,-195.75001)"
       id="g11899"
       clip-path="url(#cpMHw0MzJ8Mjg4fDA=)">
      <text
         id="text11901"
         lengthAdjust="spacingAndGlyphs"
         textLength="48.41px"
         style="font-style:normal;font-variant:normal;font-weight:normal;font-stretch:normal;font-size:13.75px;line-height:125%;font-family:Arial;-inkscape-font-specification:'Arial, Normal';text-align:start;writing-mode:lr-tb;text-anchor:start"
         y="279.70001"
         x="212.21001"
         sodipodi:linespacing="125%">biomass</text>
    </g>
  </g>
  <g
     id="g6050"
     transform="translate(-147.65439,41.383437)">
    <rect
       transform="translate(322.50001,-195.75001)"
       id="rect11869"
       clip-path="url(#cpMHw0MzJ8Mjg4fDA=)"
       style="fill:#f2f2f2;stroke:#ffffff;stroke-width:1.15999997;stroke-linecap:round;stroke-linejoin:round;stroke-miterlimit:10"
       height="11.96"
       width="15.94"
       y="257.12"
       x="262.78" />
    <line
       transform="translate(322.50001,-195.75001)"
       id="line11871"
       clip-path="url(#cpMHw0MzJ8Mjg4fDA=)"
       style="fill:none;stroke:#fb9a99;stroke-width:4.26999998;stroke-linecap:butt;stroke-linejoin:round;stroke-miterlimit:10"
       y2="263.09"
       x2="277.12"
       y1="263.09"
       x1="264.37" />
    <line
       transform="translate(322.50001,-195.75001)"
       id="line11873"
       clip-path="url(#cpMHw0MzJ8Mjg4fDA=)"
       style="fill:none;stroke:#fb9a99;stroke-width:4.26999998;stroke-linecap:butt;stroke-linejoin:round;stroke-miterlimit:10;stroke-dasharray:11.38, 5.69, 11.38, 5.69"
       y2="263.09"
       x2="277.12"
       y1="263.09"
       x1="264.37" />
    <rect
       transform="translate(322.50001,-195.75001)"
       id="rect11875"
       clip-path="url(#cpMHw0MzJ8Mjg4fDA=)"
       style="fill:#f2f2f2;stroke:#ffffff;stroke-width:1.15999997;stroke-linecap:round;stroke-linejoin:round;stroke-miterlimit:10"
       height="11.96"
       width="15.94"
       y="269.07001"
       x="262.78" />
    <line
       transform="translate(322.50001,-195.75001)"
       id="line11877"
       clip-path="url(#cpMHw0MzJ8Mjg4fDA=)"
       style="fill:none;stroke:#e31a1c;stroke-width:4.26999998;stroke-linecap:butt;stroke-linejoin:round;stroke-miterlimit:10"
       y2="275.04999"
       x2="277.12"
       y1="275.04999"
       x1="264.37" />
    <line
       transform="translate(322.50001,-195.75001)"
       id="line11879"
       clip-path="url(#cpMHw0MzJ8Mjg4fDA=)"
       style="fill:none;stroke:#e31a1c;stroke-width:4.26999998;stroke-linecap:butt;stroke-linejoin:round;stroke-miterlimit:10;stroke-dasharray:11.38, 5.69, 11.38, 5.69"
       y2="275.04999"
       x2="277.12"
       y1="275.04999"
       x1="264.37" />
    <g
       transform="translate(322.50001,-195.75001)"
       id="g11903"
       clip-path="url(#cpMHw0MzJ8Mjg4fDA=)">
      <text
         id="text11905"
         lengthAdjust="spacingAndGlyphs"
         textLength="67.93px"
         style="font-style:normal;font-variant:normal;font-weight:normal;font-stretch:normal;font-size:13.75px;line-height:125%;font-family:Arial;-inkscape-font-specification:'Arial, Normal';text-align:start;writing-mode:lr-tb;text-anchor:start"
         y="267.75"
         x="280.88"
         sodipodi:linespacing="125%">hydropower</text>
    </g>
    <g
       transform="translate(322.50001,-195.75001)"
       id="g11907"
       clip-path="url(#cpMHw0MzJ8Mjg4fDA=)">
      <text
         id="text11909"
         lengthAdjust="spacingAndGlyphs"
         textLength="42.64px"
         style="font-style:normal;font-variant:normal;font-weight:normal;font-stretch:normal;font-size:13.75px;line-height:125%;font-family:Arial;-inkscape-font-specification:'Arial, Normal';text-align:start;writing-mode:lr-tb;text-anchor:start"
         y="279.70001"
         x="280.88"
         sodipodi:linespacing="125%">nuclear</text>
    </g>
  </g>
  <g
     id="g6062"
     transform="translate(-235.83438,69.580002)">
    <rect
       transform="translate(322.50001,-195.75001)"
       id="rect11881"
       clip-path="url(#cpMHw0MzJ8Mjg4fDA=)"
       style="fill:#f2f2f2;stroke:#ffffff;stroke-width:1.15999997;stroke-linecap:round;stroke-linejoin:round;stroke-miterlimit:10"
       height="11.96"
       width="15.94"
       y="257.12"
       x="350.95999" />
    <line
       transform="translate(322.50001,-195.75001)"
       id="line11883"
       clip-path="url(#cpMHw0MzJ8Mjg4fDA=)"
       style="fill:none;stroke:#fdbf6f;stroke-width:4.26999998;stroke-linecap:butt;stroke-linejoin:round;stroke-miterlimit:10"
       y2="263.09"
       x2="365.31"
       y1="263.09"
       x1="352.56" />
    <line
       transform="translate(322.50001,-195.75001)"
       id="line11885"
       clip-path="url(#cpMHw0MzJ8Mjg4fDA=)"
       style="fill:none;stroke:#fdbf6f;stroke-width:4.26999998;stroke-linecap:butt;stroke-linejoin:round;stroke-miterlimit:10;stroke-dasharray:11.38, 5.69, 11.38, 5.69"
       y2="263.09"
       x2="365.31"
       y1="263.09"
       x1="352.56" />
    <g
       transform="translate(322.50001,-195.75001)"
       id="g11911"
       clip-path="url(#cpMHw0MzJ8Mjg4fDA=)">
      <text
         id="text11913"
         lengthAdjust="spacingAndGlyphs"
         textLength="26.74px"
         style="font-style:normal;font-variant:normal;font-weight:normal;font-stretch:normal;font-size:13.75px;line-height:125%;font-family:Arial;-inkscape-font-specification:'Arial, Normal';text-align:start;writing-mode:lr-tb;text-anchor:start"
         y="267.75"
         x="369.06"
         sodipodi:linespacing="125%">wind</text>
    </g>
  </g>
</svg>
